<svg width="88" height="76" viewBox="0 0 88 76" fill="none" xmlns="http://www.w3.org/2000/svg">
<path d="M49.2253 0C28.5439 0 11.7196 16.3852 11.2171 36.7816V37.7246H0.180786L16.9027 55.637L33.1594 37.7246H20.7273V36.7816C21.2251 21.5878 33.7921 9.4346 49.2253 9.4346C64.9794 9.4346 77.7512 22.103 77.7512 37.7246C77.7512 53.3462 64.9794 66.0146 49.2253 66.0146C43.151 66.0182 37.2359 64.0946 32.3498 60.5268L25.808 67.4452C32.4848 72.6334 40.7331 75.4494 49.2253 75.44C70.2323 75.44 87.2567 58.558 87.2567 37.7246C87.2567 16.8912 70.2323 0 49.2253 0ZM44.5725 14.7246V37.7246C44.5778 38.9435 45.0674 40.1115 45.9358 40.9768L60.8245 55.6968C62.1412 54.855 63.3835 53.9074 64.4862 52.808L53.878 42.3246V14.7246H44.5725Z" fill="white"/>
</svg>
