<svg width="83" height="79" viewBox="0 0 83 79" fill="none" xmlns="http://www.w3.org/2000/svg">
<path d="M50.8575 0H56.7561C61.0817 0 64.6209 3.7421 64.6209 8.31579V34.9263L50.8575 0ZM72.0924 6.65263L77.2046 9.14737C81.137 10.8105 83.1032 15.8 81.5302 19.9579L72.0924 44.4895V6.65263ZM63.8344 55.3L44.1724 5.40526C42.9927 2.07895 40.24 0.415789 37.0941 0.415789C35.9143 0.415789 35.1279 0.831579 33.9481 1.24737L4.84837 13.7211C0.915973 15.3842 -1.05023 19.9579 0.915973 24.1158L20.578 74.0105C21.7577 77.3368 24.5104 79 27.6563 79C28.836 79 29.6225 79 30.8022 78.1684L59.902 65.6947C63.0479 64.4474 64.6209 61.5368 64.6209 58.2105C64.2276 57.379 64.2276 56.1316 63.8344 55.3ZM37.8805 53.2211L25.2969 43.2421L26.8698 26.6105L39.4535 36.5895L37.8805 53.2211Z" fill="white"/>
</svg>
