<svg width="49" height="66" viewBox="0 0 49 66" fill="none" xmlns="http://www.w3.org/2000/svg">
<path d="M16.0934 26.4H12.25C11.6002 26.4 10.9771 26.6318 10.5176 27.0444C10.0581 27.4569 9.8 28.0165 9.8 28.6V33C9.8 33.5835 10.0581 34.1431 10.5176 34.5556C10.9771 34.9682 11.6002 35.2 12.25 35.2H14.7V35.9549C14.7 42.0049 14.0661 47.8624 11.025 52.8H37.975C34.9293 47.8624 34.3 42.0049 34.3 35.9549V35.2H36.75C37.3998 35.2 38.0229 34.9682 38.4824 34.5556C38.9419 34.1431 39.2 33.5835 39.2 33V28.6C39.2 28.0165 38.9419 27.4569 38.4824 27.0444C38.0229 26.6318 37.3998 26.4 36.75 26.4H32.9066C37.4069 23.8727 40.425 19.4178 40.425 14.3C40.425 10.5074 38.7472 6.87014 35.7607 4.18837C32.7742 1.5066 28.7236 0 24.5 0C20.2764 0 16.2258 1.5066 13.2393 4.18837C10.2528 6.87014 8.575 10.5074 8.575 14.3C8.575 19.4178 11.5931 23.8727 16.0934 26.4ZM46.55 57.2H2.45C1.80022 57.2 1.17705 57.4318 0.717588 57.8444C0.258124 58.2569 0 58.8165 0 59.4L0 63.8C0 64.3835 0.258124 64.9431 0.717588 65.3556C1.17705 65.7682 1.80022 66 2.45 66H46.55C47.1998 66 47.8229 65.7682 48.2824 65.3556C48.7419 64.9431 49 64.3835 49 63.8V59.4C49 58.8165 48.7419 58.2569 48.2824 57.8444C47.8229 57.4318 47.1998 57.2 46.55 57.2Z" fill="white"/>
</svg>
